<svg id="Layer_1" data-name="Layer 1" xmlns="http://www.w3.org/2000/svg" viewBox="0 0 378.75 59.59"><defs><style>.cls-1,.cls-2{fill:#231f20;}.cls-2{font-size:23px;font-family:Jost-Book, "Jost*";}.cls-3{letter-spacing:-0.02em;}.cls-4{letter-spacing:0em;}</style></defs><path class="cls-1" d="M80.83,23.19a7.26,7.26,0,0,1-3.28-.76,9.16,9.16,0,0,1-2.62-2,11.91,11.91,0,0,1-1.83-2.66L73,17.61,75.4,16l.11.19a11.46,11.46,0,0,0,2.33,3.06,4.49,4.49,0,0,0,3.08,1.12,3.67,3.67,0,0,0,2.58-.88,2.86,2.86,0,0,0,1-2.24,3.4,3.4,0,0,0-.62-2.14,4.71,4.71,0,0,0-1.67-1.32,21.66,21.66,0,0,0-2.25-.94,17.42,17.42,0,0,1-1.77-.72A8.51,8.51,0,0,1,76.27,11a5.53,5.53,0,0,1-1.49-1.73,5.14,5.14,0,0,1-.58-2.55A5.33,5.33,0,0,1,75,3.8a5.73,5.73,0,0,1,2.25-2,7.08,7.08,0,0,1,3.26-.73,6.74,6.74,0,0,1,3.1.67,7.81,7.81,0,0,1,2.25,1.7A9,9,0,0,1,87.32,5.6l.08.17L84.85,7.23,84.75,7a8.66,8.66,0,0,0-1-1.5,4.78,4.78,0,0,0-1.41-1.19,4.08,4.08,0,0,0-2-.45A3.16,3.16,0,0,0,78,4.66a2.45,2.45,0,0,0-.73,1.72,2.88,2.88,0,0,0,1,2.18A11,11,0,0,0,82,10.48a15.06,15.06,0,0,1,1.81.8,8.55,8.55,0,0,1,1.78,1.25A6.26,6.26,0,0,1,87,14.37,5.74,5.74,0,0,1,87.52,17a5.73,5.73,0,0,1-1,3.31,6.47,6.47,0,0,1-2.47,2.17A7.3,7.3,0,0,1,80.83,23.19Z"/><polygon class="cls-1" points="90.89 22.89 90.89 1.35 103.37 1.35 103.37 4.17 93.86 4.17 93.86 9.8 102.77 9.8 102.77 12.62 93.86 12.62 93.86 20.07 103.37 20.07 103.37 22.89 90.89 22.89"/><path class="cls-1" d="M118.61,22.89l-5.89-8.46h-2.26v8.46h-3V1.35h5.93a8.72,8.72,0,0,1,3.76.79,6.54,6.54,0,0,1,2.64,2.26,6.09,6.09,0,0,1,1,3.49,6,6,0,0,1-1.46,4.1,7,7,0,0,1-3.45,2.12l6.37,8.78Zm-5.18-11.12a4.85,4.85,0,0,0,3.21-1,3.5,3.5,0,0,0,1.21-2.85A3.48,3.48,0,0,0,116.64,5a4.9,4.9,0,0,0-3.21-1h-3v7.75Z"/><path class="cls-1" d="M139,22.89l-2.68-6.35H128l-2.69,6.35H122L132.15,0l10.12,22.89Zm-3.88-9.16-2.93-6.9-2.93,6.9Z"/><path class="cls-1" d="M144.33,22.89V1.35h5.94a8.71,8.71,0,0,1,3.75.79,6.63,6.63,0,0,1,2.65,2.26,6.16,6.16,0,0,1,1,3.49,6.22,6.22,0,0,1-1,3.48A6.38,6.38,0,0,1,154,13.64a8.56,8.56,0,0,1-3.75.79h-3v8.46Zm5.94-11.27a5.15,5.15,0,0,0,3.21-1,3.3,3.3,0,0,0,1.21-2.77,3.26,3.26,0,0,0-1.21-2.78,5.14,5.14,0,0,0-3.21-.94h-3v7.45Z"/><polygon class="cls-1" points="175.06 22.89 175.06 12.62 163.84 12.62 163.84 22.89 160.87 22.89 160.87 1.35 163.84 1.35 163.84 9.8 175.06 9.8 175.06 1.35 178.03 1.35 178.03 22.89 175.06 22.89"/><rect class="cls-1" x="182.46" y="1.35" width="2.97" height="21.54"/><path class="cls-1" d="M199.42,23.19a10.88,10.88,0,0,1-4.2-.82,10.43,10.43,0,0,1-3.43-2.31,10.71,10.71,0,0,1-2.31-3.52,11.59,11.59,0,0,1-.83-4.42,11.68,11.68,0,0,1,.83-4.43,10.82,10.82,0,0,1,2.31-3.52,10.4,10.4,0,0,1,3.43-2.3,10.7,10.7,0,0,1,4.2-.82,11.64,11.64,0,0,1,4,.59,9.25,9.25,0,0,1,3,1.78l.07.06V7.53l-.36-.45a8,8,0,0,0-2.77-2.23A8.63,8.63,0,0,0,199.42,4a7.33,7.33,0,0,0-3.77,1,8.08,8.08,0,0,0-2.81,2.85,8.18,8.18,0,0,0-1.07,4.23,8.18,8.18,0,0,0,1.07,4.21,8,8,0,0,0,2.81,2.86,7.22,7.22,0,0,0,3.77,1,8.5,8.5,0,0,0,3.86-.85,8.34,8.34,0,0,0,2.77-2.21l.36-.45v4l-.07.06a9.17,9.17,0,0,1-3,1.79A11.64,11.64,0,0,1,199.42,23.19Z"/><path class="cls-1" d="M234.15,22.89l-2.68-6.35h-8.25l-2.69,6.35h-3.31L227.34,0l10.12,22.89Zm-3.88-9.16-2.93-6.9-2.93,6.9Z"/><path class="cls-1" d="M239.52,22.89V1.35h6.54a11.25,11.25,0,0,1,5.56,1.36,9.89,9.89,0,0,1,3.82,3.77,11.18,11.18,0,0,1,1.39,5.64,11.18,11.18,0,0,1-1.39,5.64,9.89,9.89,0,0,1-3.82,3.77,11.25,11.25,0,0,1-5.56,1.36Zm6.54-3a8.41,8.41,0,0,0,4.09-1,7,7,0,0,0,2.73-2.7,8.37,8.37,0,0,0,1-4.14,8.36,8.36,0,0,0-1-4.16,7,7,0,0,0-2.73-2.69,8.52,8.52,0,0,0-4.09-.95h-3.57v15.6Z"/><polygon class="cls-1" points="256.77 1.35 260.08 1.35 266.89 17.4 273.7 1.35 277.01 1.35 266.89 24.24 256.77 1.35"/><rect class="cls-1" x="279.07" y="1.35" width="2.97" height="21.54"/><path class="cls-1" d="M293,23.19a7.29,7.29,0,0,1-3.28-.76,9.16,9.16,0,0,1-2.62-2,11.91,11.91,0,0,1-1.83-2.66l-.08-.15L287.52,16l.11.19A11.46,11.46,0,0,0,290,19.25,4.49,4.49,0,0,0,293,20.37a3.67,3.67,0,0,0,2.58-.88,2.91,2.91,0,0,0,1-2.24,3.4,3.4,0,0,0-.62-2.14,4.71,4.71,0,0,0-1.67-1.32,20,20,0,0,0-2.25-.94,17.42,17.42,0,0,1-1.77-.72A8.74,8.74,0,0,1,288.39,11a5.8,5.8,0,0,1-1.49-1.73,5.14,5.14,0,0,1-.58-2.55,5.33,5.33,0,0,1,.81-2.91,5.73,5.73,0,0,1,2.25-2,7.09,7.09,0,0,1,3.27-.73,6.73,6.73,0,0,1,3.09.67A7.81,7.81,0,0,1,298,3.42a9,9,0,0,1,1.45,2.18l.08.17L297,7.23,296.88,7a9.38,9.38,0,0,0-1-1.5,4.87,4.87,0,0,0-1.4-1.19,4.13,4.13,0,0,0-2-.45,3.17,3.17,0,0,0-2.37.76,2.45,2.45,0,0,0-.73,1.72,2.88,2.88,0,0,0,1,2.18,11.11,11.11,0,0,0,3.76,1.92,13.79,13.79,0,0,1,1.81.8,8.06,8.06,0,0,1,1.78,1.25,6.47,6.47,0,0,1,1.36,1.84,5.88,5.88,0,0,1,.53,2.58,5.73,5.73,0,0,1-1,3.31,6.47,6.47,0,0,1-2.47,2.17A7.3,7.3,0,0,1,293,23.19Z"/><path class="cls-1" d="M312.72,23.19a11.07,11.07,0,0,1-4.33-.85A10.72,10.72,0,0,1,304.91,20a10.51,10.51,0,0,1-2.29-3.52,11.66,11.66,0,0,1-.81-4.36,11.65,11.65,0,0,1,.81-4.38,10.47,10.47,0,0,1,5.77-5.84,11.5,11.5,0,0,1,8.68,0,10.71,10.71,0,0,1,3.46,2.33,10.59,10.59,0,0,1,2.3,3.51,11.65,11.65,0,0,1,.81,4.38,11.66,11.66,0,0,1-.81,4.36A10.66,10.66,0,0,1,320.54,20a10.89,10.89,0,0,1-3.47,2.34A11.06,11.06,0,0,1,312.72,23.19Zm0-19.17A7.52,7.52,0,0,0,305.94,8a8.38,8.38,0,0,0-1,4.16,8.38,8.38,0,0,0,1,4.16,7.91,7.91,0,0,0,10.8,2.88,7.74,7.74,0,0,0,2.77-2.88,8.48,8.48,0,0,0,1-4.16,8.48,8.48,0,0,0-1-4.16,7.84,7.84,0,0,0-2.77-2.89A7.65,7.65,0,0,0,312.72,4Z"/><path class="cls-1" d="M338,22.89l-5.89-8.46h-2.26v8.46h-3V1.35h5.94a8.75,8.75,0,0,1,3.76.79A6.54,6.54,0,0,1,339.2,4.4a6.09,6.09,0,0,1,1,3.49,6,6,0,0,1-1.46,4.1,7,7,0,0,1-3.45,2.12l6.37,8.78ZM332.8,11.77a4.89,4.89,0,0,0,3.21-1,3.53,3.53,0,0,0,1.21-2.85A3.51,3.51,0,0,0,336,5a4.93,4.93,0,0,0-3.21-1h-3v7.75Z"/><path class="cls-1" d="M350.25,23.19a7.25,7.25,0,0,1-3.27-.76,9.07,9.07,0,0,1-2.63-2,11.86,11.86,0,0,1-1.82-2.66l-.08-.15L344.83,16l.1.19a11.67,11.67,0,0,0,2.33,3.06,4.49,4.49,0,0,0,3.08,1.12,3.67,3.67,0,0,0,2.58-.88,2.91,2.91,0,0,0,1-2.24,3.34,3.34,0,0,0-.63-2.14,4.77,4.77,0,0,0-1.66-1.32,21,21,0,0,0-2.26-.94,17.42,17.42,0,0,1-1.77-.72A9,9,0,0,1,345.69,11a5.63,5.63,0,0,1-1.48-1.73,5.14,5.14,0,0,1-.59-2.55,5.34,5.34,0,0,1,.82-2.91,5.66,5.66,0,0,1,2.25-2A7,7,0,0,1,350,1.05a6.73,6.73,0,0,1,3.09.67,7.68,7.68,0,0,1,2.25,1.7,8.71,8.71,0,0,1,1.45,2.18l.08.17-2.55,1.46L354.18,7a9.3,9.3,0,0,0-1-1.5,4.91,4.91,0,0,0-1.41-1.19,4.11,4.11,0,0,0-2-.45,3.13,3.13,0,0,0-2.36.76,2.45,2.45,0,0,0-.73,1.72,2.87,2.87,0,0,0,1,2.18,11.11,11.11,0,0,0,3.76,1.92,13.79,13.79,0,0,1,1.81.8,8.06,8.06,0,0,1,1.78,1.25,6.29,6.29,0,0,1,1.36,1.84,5.88,5.88,0,0,1,.53,2.58,5.8,5.8,0,0,1-.95,3.31,6.5,6.5,0,0,1-2.48,2.17A7.3,7.3,0,0,1,350.25,23.19Z"/><text class="cls-2" transform="translate(73.28 48.39)">Ad<tspan class="cls-3" x="28.29" y="0">v</tspan><tspan class="cls-4" x="38.06" y="0">ocates &amp; Solicitors</tspan></text><path class="cls-1" d="M27.67,30.33a25.29,25.29,0,0,1-7.38-1.08c-5.2-1.62-9.06-4.76-16.08-10.47l-.14-.12C2.8,17.63,1.73,16.73.89,16L0,15.24l.89-.76c.84-.73,1.91-1.63,3.16-2.65l.16-.13C11.23,6,15.09,2.85,20.29,1.24A25,25,0,0,1,27.67.16a30.59,30.59,0,0,1,4.22.3l0,.4A46.67,46.67,0,0,0,9.09,15.21h0l0,0a45.37,45.37,0,0,0,5.48,5.35,47.49,47.49,0,0,0,17.35,9l0,.39A30.63,30.63,0,0,1,27.67,30.33Z"/><path class="cls-1" d="M36,45.22a30.37,30.37,0,0,1-4.21-.31l0-.39a47.56,47.56,0,0,0,17.35-9,47.36,47.36,0,0,0,5.47-5.32l0,0,0,0a45.3,45.3,0,0,0-5.48-5.34,47.34,47.34,0,0,0-17.35-9l0-.39A30.63,30.63,0,0,1,36.05,15a24.84,24.84,0,0,1,7.37,1.09c5.21,1.61,9.3,4.94,16.08,10.46l.09.07c1.33,1.08,2.4,2,3.24,2.7l.88.77-.88.76c-.84.73-1.91,1.63-3.17,2.65l-.15.13c-6.79,5.52-10.88,8.85-16.09,10.46A24.86,24.86,0,0,1,36,45.22Z"/></svg>