<svg id="Layer_1" data-name="Layer 1" xmlns="http://www.w3.org/2000/svg" viewBox="0 0 40 35">
<defs><style>.cls-1,.cls-2{fill:#231f20;}.cls-2{font-size:23px;font-family:Jost-Book, "Jost*";}.cls-3{letter-spacing:-0.02em;}.cls-4{letter-spacing:0em;}</style>
</defs>
<path class="cls-1" d="M27.67,30.33a25.29,25.29,0,0,1-7.38-1.08c-5.2-1.62-9.06-4.76-16.08-10.47l-.14-.12C2.8,17.63,1.73,16.73.89,16L0,15.24l.89-.76c.84-.73,1.91-1.63,3.16-2.65l.16-.13C11.23,6,15.09,2.85,20.29,1.24A25,25,0,0,1,27.67.16a30.59,30.59,0,0,1,4.22.3l0,.4A46.67,46.67,0,0,0,9.09,15.21h0l0,0a45.37,45.37,0,0,0,5.48,5.35,47.49,47.49,0,0,0,17.35,9l0,.39A30.63,30.63,0,0,1,27.67,30.33Z"/></svg>