<svg id="Layer_1" data-name="Layer 1" xmlns="http://www.w3.org/2000/svg" viewBox="25 0 45 60">
<defs><style>.cls-1,.cls-2{fill:#231f20;}.cls-2{font-size:23px;font-family:Jost-Book, "Jost*";}.cls-3{letter-spacing:-0.02em;}.cls-4{letter-spacing:0em;}</style>
</defs>
<path class="cls-1" d="M36,45.22a30.37,30.37,0,0,1-4.21-.31l0-.39a47.56,47.56,0,0,0,17.35-9,47.36,47.36,0,0,0,5.47-5.32l0,0,0,0a45.3,45.3,0,0,0-5.48-5.34,47.34,47.34,0,0,0-17.35-9l0-.39A30.63,30.63,0,0,1,36.05,15a24.84,24.84,0,0,1,7.37,1.09c5.21,1.61,9.3,4.94,16.08,10.46l.09.07c1.33,1.08,2.4,2,3.24,2.7l.88.77-.88.76c-.84.73-1.91,1.63-3.17,2.65l-.15.13c-6.79,5.52-10.88,8.85-16.09,10.46A24.86,24.86,0,0,1,36,45.22Z"/></svg>